<?xml version="1.0" encoding="UTF-8"?>
<svg width="60px" height="50px" viewBox="0 0 60 50" version="1.1" xmlns="http://www.w3.org/2000/svg" xmlns:xlink="http://www.w3.org/1999/xlink">
    <!-- Generator: sketchtool 43.1 (39012) - http://www.bohemiancoding.com/sketch -->
    <title>3169392D-829A-42BC-84F0-AF8F9A766706</title>
    <desc>Created with sketchtool.</desc>
    <defs></defs>
    <g id="Symbols" stroke="none" stroke-width="1" fill="none" fill-rule="evenodd">
        <g id="Footer-Desktop" transform="translate(-250.000000, -38.000000)" fill="#D9D7D5">
            <g id="Footer">
                <g id="SPARKFOX-ICON" transform="translate(250.000000, 38.000000)">
                    <path d="M52.4489143,24.135 C52.3786286,24.0487931 51.9997714,23.6436207 51.1289143,23.222931 C50.5546286,22.9384483 49.8894857,22.7177586 49.1506286,22.5608621 C49.1540571,22.1143103 49.1609143,21.6522414 49.1677714,21.1694828 C49.2072,18.1884483 49.2517714,14.8108621 48.8489143,11.1022414 C48.7700571,10.3643103 48.6654857,9.50224138 48.5214857,8.66258621 L48.5214857,8.65568966 C48.5214857,8.62982759 48.5180571,8.59706897 48.5112,8.57465517 C47.9249143,4.45568966 46.5432,0.291896552 46.5294857,0.250517241 C46.4832,0.112586207 46.3580571,0.0125862069 46.2140571,0.00224137931 C46.0700571,-0.00982758621 45.9294857,0.0625862069 45.8592,0.191896552 C44.0420571,3.53844828 41.7003429,6.68672414 40.7763429,7.885 C38.8169143,10.3298276 36.5283429,12.8212069 34.3117714,15.2281034 C33.6740571,15.9212069 33.0123429,16.6384483 32.3729143,17.3487931 C32.2957714,17.4281034 32.1980571,17.5177586 32.0780571,17.6160345 C30.3380571,17.4005172 28.3357714,17.2884483 26.2700571,17.2884483 C24.2094857,17.2884483 22.2072,17.4005172 20.4672,17.6160345 C20.3403429,17.5177586 20.2443429,17.4298276 20.1723429,17.347069 C19.5294857,16.6384483 18.8694857,15.9212069 18.2300571,15.2281034 C16.1780571,12.9936207 14.0557714,10.6867241 12.2026286,8.42465517 C12.0740571,8.26431034 8.98834286,4.41086207 6.69977143,0.191896552 C6.62777143,0.0625862069 6.48891429,-0.015 6.3432,0.00224137931 C6.19748571,0.0143103448 6.07234286,0.112586207 6.02948571,0.252241379 C6.01234286,0.291896552 4.6272,4.47293103 4.04434286,8.59706897 C3.9072,9.40224138 3.79062857,10.2453448 3.69291429,11.1005172 C3.29005714,14.8108621 3.33462857,18.1918966 3.37405714,21.1712069 C3.38091429,21.6539655 3.38605714,22.1125862 3.38948571,22.5591379 C2.65405714,22.7160345 1.99062857,22.9401724 1.41462857,23.2194828 C0.555771429,23.6367241 0.166628571,24.0487931 0.0929142857,24.135 C0.0432,24.1867241 0.0123428571,24.2574138 0.00205714286,24.3367241 C-0.0168,24.522931 0.0997714286,24.6936207 0.279771429,24.7367241 C0.288342857,24.7401724 0.298628571,24.7418966 0.3072,24.7436207 C0.310628571,24.7453448 0.310628571,24.7453448 0.314057143,24.7436207 C0.514628571,24.7832759 0.725485714,24.8246552 0.936342857,24.8712069 C0.980914286,24.8867241 1.0272,24.8953448 1.07348571,24.9091379 L1.16434286,24.9315517 C1.32891429,24.9677586 1.45577143,24.9987931 1.57577143,25.0298276 C1.6272,25.0436207 1.6752,25.0591379 1.72662857,25.072931 C1.76777143,25.085 1.80548571,25.0953448 1.8432,25.1039655 L1.91177143,25.122931 C2.01462857,25.1556897 2.1192,25.1815517 2.22034286,25.2125862 C2.30948571,25.2436207 2.40034286,25.2694828 2.50148571,25.3005172 L2.52891429,25.3108621 C2.64205714,25.3418966 2.74662857,25.3781034 2.85805714,25.4143103 C2.92834286,25.4367241 2.9952,25.4608621 3.06205714,25.485 L3.14262857,25.5125862 C3.26091429,25.5505172 3.37405714,25.5936207 3.49062857,25.6332759 C3.56777143,25.6591379 3.64834286,25.6884483 3.72548571,25.7212069 L3.84205714,25.7608621 C3.9312,25.7953448 4.02034286,25.8263793 4.10777143,25.8625862 C4.20034286,25.897069 4.2912,25.9367241 4.38548571,25.9712069 C4.49348571,26.0125862 4.60148571,26.0574138 4.70948571,26.1005172 C4.80034286,26.1384483 4.88605714,26.1763793 4.9752,26.2125862 L5.00777143,26.2263793 C5.10034286,26.2643103 5.19291429,26.3039655 5.28548571,26.3418966 L5.31291429,26.3556897 C5.38834286,26.3918966 5.47062857,26.422931 5.54777143,26.4591379 C5.64377143,26.4987931 5.74148571,26.5436207 5.83577143,26.5867241 C5.91805714,26.6246552 6.00205714,26.6643103 6.08777143,26.7022414 C6.1752,26.7453448 6.26777143,26.785 6.35348571,26.8281034 L6.40834286,26.8522414 C6.46834286,26.8815517 6.52834286,26.9091379 6.58834286,26.9401724 C6.67234286,26.9798276 6.75634286,27.0194828 6.83691429,27.0591379 C6.87977143,27.0815517 6.92262857,27.1022414 6.9672,27.122931 L7.05977143,27.1712069 C7.1112,27.1953448 7.1592,27.2177586 7.20548571,27.2418966 L7.27748571,27.2815517 C7.34777143,27.3177586 7.41977143,27.3505172 7.48491429,27.3867241 C7.55005714,27.4177586 7.61005714,27.4487931 7.67005714,27.4798276 C7.6992,27.4987931 7.73005714,27.5125862 7.76091429,27.5298276 C7.79691429,27.5487931 7.8312,27.5643103 7.86377143,27.5867241 L7.90834286,27.6074138 C7.94434286,27.6263793 7.98205714,27.647069 8.01805714,27.6677586 C8.0832,27.6987931 8.1432,27.7332759 8.19291429,27.7625862 C8.2152,27.772931 8.23577143,27.785 8.25634286,27.7936207 C8.27177143,27.8056897 8.28548571,27.8125862 8.30262857,27.822931 C8.33691429,27.8418966 8.36948571,27.8591379 8.40377143,27.8781034 C8.42948571,27.8936207 8.45348571,27.9056897 8.47748571,27.9194828 C8.48091429,27.9194828 8.48434286,27.922931 8.48434286,27.922931 L8.48777143,27.9212069 C8.55462857,27.9608621 8.62148571,28.0005172 8.68834286,28.0418966 C8.78605714,28.0936207 8.88205714,28.147069 8.97977143,28.2091379 C9.03977143,28.2418966 9.11005714,28.2625862 9.1752,28.2608621 C9.37748571,28.2556897 9.53862857,28.0953448 9.53862857,27.8936207 C9.53862857,27.8367241 9.52834286,27.7867241 9.50777143,27.7418966 C9.28662857,27.1056897 9.05348571,26.4315517 8.80148571,25.7418966 C8.78777143,25.7005172 8.77405714,25.6591379 8.76205714,25.6177586 C8.80662857,25.647069 8.8512,25.6746552 8.8992,25.7005172 C12.0620571,27.5574138 15.2574857,30.597069 17.2323429,33.6315517 C17.2357714,33.6367241 17.2392,33.6418966 17.2426286,33.6436207 L17.3574857,33.8005172 C20.5374857,38.7263793 22.1917714,43.7039655 23.3883429,47.9212069 C23.3969143,47.9505172 23.4106286,47.9798276 23.4260571,48.0074138 C23.5237714,48.1746552 23.6437714,48.3298276 23.7877714,48.4677586 C23.7912,48.4746552 23.7980571,48.4781034 23.8014857,48.4815517 C23.8443429,48.5212069 23.8872,48.5625862 23.9386286,48.6056897 C23.9523429,48.6160345 23.9660571,48.6281034 23.9832,48.6401724 C24.0260571,48.6763793 24.0723429,48.7091379 24.1134857,48.7384483 L24.1169143,48.7401724 C24.1357714,48.7556897 24.1563429,48.7694828 24.1803429,48.785 C24.2249143,48.8125862 24.2712,48.8436207 24.3209143,48.8763793 C24.3380571,48.8832759 24.3534857,48.8936207 24.3706286,48.9022414 C24.3774857,48.9056897 24.3809143,48.9074138 24.3894857,48.9143103 C24.4374857,48.9418966 24.4906286,48.9694828 24.5454857,48.9953448 C24.5523429,48.9987931 24.5557714,49.0005172 24.5574857,49.0022414 C24.6483429,49.0453448 24.7529143,49.0918966 24.8763429,49.135 C24.9226286,49.1556897 24.9706286,49.1694828 25.0237714,49.1867241 C25.0512,49.1953448 25.0769143,49.2005172 25.1026286,49.2108621 L25.1489143,49.222931 C25.1952,49.2367241 25.2414857,49.247069 25.2843429,49.2591379 C25.3254857,49.2677586 25.3683429,49.2798276 25.4060571,49.2867241 C25.4454857,49.297069 25.4883429,49.3039655 25.5294857,49.3091379 L25.5689143,49.3143103 C25.6100571,49.322931 25.6512,49.3298276 25.6872,49.3367241 C25.7506286,49.3436207 25.8140571,49.3539655 25.8809143,49.3556897 L25.9117714,49.3608621 C25.9323429,49.3643103 25.9512,49.3625862 25.9717714,49.3660345 C26.0677714,49.372931 26.1689143,49.3746552 26.2700571,49.3763793 L26.2734857,49.3746552 L26.2752,49.3763793 C26.3712,49.3746552 26.4706286,49.372931 26.5700571,49.3660345 C26.6077714,49.3643103 26.6369143,49.3608621 26.6643429,49.3556897 C26.7312,49.3505172 26.7946286,49.3436207 26.8512,49.3367241 C26.8820571,49.3315517 26.9094857,49.3298276 26.9386286,49.322931 L26.9694857,49.3160345 C27.0260571,49.3091379 27.0843429,49.3005172 27.1426286,49.285 L27.1717714,49.2798276 C27.1992,49.272931 27.2300571,49.2660345 27.2574857,49.2591379 C27.2934857,49.2505172 27.3277714,49.2436207 27.3637714,49.2298276 L27.4014857,49.222931 C27.4049143,49.222931 27.4083429,49.2177586 27.4117714,49.2177586 L27.4426286,49.2108621 C27.4717714,49.2005172 27.4974857,49.1953448 27.5249143,49.185 C27.5694857,49.1712069 27.6089143,49.1591379 27.6517714,49.1401724 L27.6689143,49.135 C27.7940571,49.0867241 27.8934857,49.047069 27.9843429,49.0005172 C27.9912,49.0005172 27.9929143,48.9987931 27.9997714,48.9953448 C28.0512,48.9694828 28.0940571,48.9436207 28.1454857,48.9194828 C28.1677714,48.9056897 28.1952,48.8918966 28.2174857,48.8746552 C28.2689143,48.8487931 28.3152,48.8160345 28.3614857,48.7867241 C28.3649143,48.7832759 28.3683429,48.7798276 28.3752,48.7763793 L28.3872,48.7677586 C28.3992,48.7608621 28.4094857,48.7539655 28.4146286,48.747069 C28.4729143,48.7108621 28.5192,48.672931 28.5603429,48.6401724 C28.5774857,48.6263793 28.5894857,48.6160345 28.6014857,48.6039655 C28.6426286,48.5694828 28.6940571,48.5281034 28.7403429,48.4815517 C28.7454857,48.4781034 28.7540571,48.4694828 28.7574857,48.4643103 C28.8946286,48.3298276 29.0163429,48.1763793 29.1157714,48.0091379 C29.1312,47.9832759 29.1466286,47.9505172 29.1552,47.9212069 C30.3500571,43.7056897 32.0009143,38.7332759 35.1860571,33.8005172 L35.2220571,33.7522414 C35.2494857,33.7194828 35.2752,33.6815517 35.3026286,33.6436207 C35.3026286,33.6384483 35.3060571,33.635 35.3094857,33.6315517 C37.2877714,30.5953448 40.4832,27.5591379 43.6460571,25.7005172 C43.6906286,25.6746552 43.7369143,25.6453448 43.7832,25.6177586 C43.7677714,25.6608621 43.7540571,25.7005172 43.7403429,25.7401724 C43.4729143,26.4918966 43.2380571,27.1556897 43.0272,27.7712069 C42.9672,27.9367241 43.0374857,28.1246552 43.1952,28.2125862 C43.2432,28.2436207 43.3014857,28.2608621 43.3614857,28.2608621 C43.4283429,28.2643103 43.4986286,28.247069 43.5620571,28.2091379 C43.6632,28.1487931 43.7609143,28.0953448 43.8569143,28.0367241 C43.9237714,28.0005172 43.9906286,27.9608621 44.0574857,27.922931 C44.0609143,27.9212069 44.0609143,27.9194828 44.0609143,27.9194828 C44.1192,27.8884483 44.1792,27.8556897 44.2443429,27.8177586 C44.2752,27.8022414 44.3060571,27.785 44.3420571,27.7643103 L44.5512,27.6556897 C44.5940571,27.6281034 44.6369143,27.6074138 44.6780571,27.5867241 C44.7380571,27.5505172 44.8049143,27.5194828 44.8717714,27.4815517 L44.9146286,27.4591379 C44.9609143,27.4332759 45.0089143,27.4108621 45.0620571,27.3832759 C45.1066286,27.3574138 45.1529143,27.3332759 45.2026286,27.3125862 L45.2712,27.2746552 C45.3072,27.2591379 45.3466286,27.2401724 45.3843429,27.2177586 L45.4854857,27.1677586 C45.5180571,27.1522414 45.5523429,27.135 45.5883429,27.1160345 C45.6277714,27.0987931 45.6689143,27.0763793 45.7083429,27.0574138 C45.7889143,27.0194828 45.8694857,26.9798276 45.9534857,26.9384483 C46.0237714,26.9039655 46.0940571,26.872931 46.1677714,26.8384483 L46.2037714,26.822931 C46.2877714,26.7815517 46.3717714,26.7418966 46.4609143,26.697069 C46.5260571,26.6677586 46.5929143,26.6401724 46.6597714,26.6091379 L46.7060571,26.585 C46.7763429,26.5556897 46.8500571,26.5263793 46.9203429,26.4918966 L47.2563429,26.3418966 C47.3592,26.3005172 47.4586286,26.2539655 47.5666286,26.2125862 C47.6540571,26.1763793 47.7432,26.1384483 47.8323429,26.1022414 C47.9386286,26.0556897 48.0500571,26.0125862 48.1597714,25.9677586 L48.1992,25.9556897 C48.2763429,25.9246552 48.3534857,25.8936207 48.4374857,25.8625862 C48.5146286,25.8298276 48.5917714,25.8022414 48.6723429,25.772931 L48.7717714,25.7332759 C48.8660571,25.7005172 48.9586286,25.6660345 49.0512,25.6332759 C49.1437714,25.6005172 49.2346286,25.5694828 49.3254857,25.5367241 L49.4386286,25.4987931 C49.5192,25.4712069 49.5997714,25.4401724 49.6837714,25.4143103 C49.8037714,25.3763793 49.9237714,25.3367241 50.0489143,25.3005172 L50.1277714,25.272931 C50.1963429,25.2522414 50.2597714,25.2315517 50.3232,25.2125862 C50.4466286,25.1746552 50.5769143,25.1418966 50.7072,25.1039655 L50.7740571,25.085 C50.8392,25.0677586 50.9026286,25.047069 50.9660571,25.0315517 C51.0929143,24.997069 51.2232,24.9660345 51.3500571,24.9367241 L51.4820571,24.9022414 C51.5249143,24.8901724 51.5677714,24.8832759 51.6089143,24.872931 C51.8403429,24.8194828 52.0477714,24.7781034 52.2414857,24.7436207 C52.4283429,24.7056897 52.5586286,24.5332759 52.5432,24.3436207 C52.5312,24.2643103 52.5020571,24.1918966 52.4489143,24.135" id="Fill-1"></path>
                    <path d="M16.7535429,37.3437931 C16.7518286,37.3386207 16.7449714,37.3317241 16.7432571,37.3282759 L16.6644,37.2144828 C15.0564,34.6524138 12.5826857,31.9937931 10.0404,30.1006897 C9.9204,30.0110345 9.7524,30.0041379 9.62211429,30.0868966 C9.49525714,30.1731034 9.43011429,30.33 9.4644,30.48 C9.64268571,31.2472414 9.77297143,31.8368966 9.88782857,32.3886207 C9.89982857,32.4368966 9.91011429,32.4868966 9.9204,32.5351724 L9.76268571,32.4248276 C8.09297143,31.2403448 6.38554286,30.2075862 4.69354286,29.3524138 C4.54954286,29.2782759 4.37125714,29.3127586 4.26154286,29.4334483 C4.15182857,29.5524138 4.13125714,29.7334483 4.21525714,29.8765517 C4.39182857,30.1713793 4.61297143,30.4282759 4.86325714,30.6317241 C6.78325714,32.2334483 8.65868571,33.9093103 10.4364,35.6144828 C15.4952571,40.4610345 18.9032571,44.7058621 20.4872571,46.8024138 C20.5575429,46.8989655 20.6672571,46.9489655 20.7786857,46.9472414 C20.7821143,46.9506897 20.7855429,46.9472414 20.7889714,46.9489655 C20.9861143,46.9437931 21.1472571,46.7817241 21.1472571,46.58 C21.1472571,46.5231034 21.1335429,46.4713793 21.1095429,46.4231034 C19.8598286,43.0248276 18.4352571,40.0541379 16.7535429,37.3437931" id="Fill-4"></path>
                    <path d="M48.2938286,29.5027586 C48.1841143,29.382069 48.0058286,29.3458621 47.8618286,29.4217241 C46.1544,30.2837931 44.4504,31.3182759 42.7892571,32.4924138 C42.7361143,32.5286207 42.6864,32.5648276 42.6315429,32.6027586 C42.6418286,32.5562069 42.6521143,32.5044828 42.6624,32.4562069 C42.7858286,31.8803448 42.9229714,31.27 43.0875429,30.5441379 C43.1201143,30.3975862 43.0601143,30.2389655 42.9298286,30.1562069 C42.8029714,30.07 42.6349714,30.0786207 42.5115429,30.17 C39.9709714,32.0596552 37.4989714,34.7131034 35.8961143,37.2682759 C35.8652571,37.307931 35.8378286,37.3527586 35.8086857,37.3941379 L35.7915429,37.4148276 C35.7881143,37.4217241 35.7846857,37.4268966 35.7812571,37.4337931 C34.1012571,40.1493103 32.6732571,43.1234483 31.4218286,46.5251724 C31.3584,46.6993103 31.4286857,46.8889655 31.5898286,46.9803448 C31.6464,47.0096552 31.7064,47.0234483 31.7664,47.0234483 C31.8778286,47.0234483 31.9875429,46.9734483 32.0578286,46.8786207 C33.9932571,44.3131034 37.3086857,40.2855172 42.1155429,35.6803448 C43.8744,33.9958621 45.7498286,32.32 47.6869714,30.7027586 C47.9424,30.4924138 48.1635429,30.2372414 48.3401143,29.9424138 C48.4241143,29.8027586 48.4069714,29.62 48.2938286,29.5027586" id="Fill-6"></path>
                    <path d="M59.2021714,22.0184483 L58.6553143,22.0184483 L58.6553143,19.6098276 L58.6347429,19.6098276 L57.5341714,22.0184483 L57.2376,22.0184483 L56.1678857,19.6098276 L56.1438857,19.6098276 L56.1438857,22.0184483 L55.6313143,22.0184483 L55.6313143,18.6753448 L56.2690286,18.6753448 L57.3987429,21.1805172 L57.4193143,21.1805172 L58.5644571,18.6753448 L59.2021714,18.6753448 L59.2021714,22.0184483 Z M55.2096,19.1753448 L54.1604571,19.1753448 L54.1604571,22.0184483 L53.6067429,22.0184483 L53.6067429,19.1753448 L52.5678857,19.1753448 L52.5678857,18.6753448 L55.2096,18.6753448 L55.2096,19.1753448 Z" id="Fill-8"></path>
                </g>
            </g>
        </g>
    </g>
</svg>