<svg width="25" height="26" xmlns="http://www.w3.org/2000/svg">
 <!-- Created with Method Draw - http://github.com/duopixel/Method-Draw/ -->

 <g>
  <title>background</title>
  <rect fill="none" id="canvas_background" height="28" width="27" y="-1" x="-1"/>
  <g display="none" overflow="visible" y="0" x="0" height="100%" width="100%" id="canvasGrid">
   <rect fill="url(#gridpattern)" stroke-width="0" y="0" x="0" height="100%" width="100%"/>
  </g>
 </g>
 <g>
  <title>Layer 1</title>
  <g stroke="null" id="svg_5">
   <path id="svg_4" d="m24.410657,21.284954l-4.424439,-4.424852c-0.199699,-0.199717 -0.470402,-0.310672 -0.754418,-0.310672l-0.723354,0c1.22482,-1.566673 1.952611,-3.537219 1.952611,-5.680853c0,-5.099453 -4.131547,-9.231386 -9.230525,-9.231386s-9.230525,4.131933 -9.230525,9.231386s4.131547,9.231386 9.230525,9.231386c2.143434,0 4.113796,-0.727859 5.680323,-1.952793l0,0.723421c0,0.284043 0.110944,0.554771 0.310643,0.754488l4.424439,4.424852c0.417149,0.417188 1.091687,0.417188 1.504398,0l1.255884,-1.256001c0.417149,-0.417188 0.417149,-1.091789 0.004438,-1.508977zm-13.180124,-4.735524c-3.137491,0 -5.680323,-2.538631 -5.680323,-5.680853c0,-3.137784 2.538394,-5.680853 5.680323,-5.680853c3.137491,0 5.680323,2.538631 5.680323,5.680853c0,3.137784 -2.538394,5.680853 -5.680323,5.680853z" fill="#07bd19"/>
  </g>
  <path id="svg_6" d="m23.5,204" opacity="0.5" stroke-width="1.5" stroke="#46673D" fill="none"/>
 </g>
</svg>