<svg xmlns="http://www.w3.org/2000/svg" viewBox="0 0 29.697 26.978"><defs><style>.a{fill:#fff;}</style></defs><path class="a" d="M29.644,13.186a2.368,2.368,0,0,0-.747-.5,4.945,4.945,0,0,0-1.118-.363c0-.245.006-.5.009-.759a42.423,42.423,0,0,0-.179-5.5c-.046-.4-.1-.875-.186-1.333v0a.234.234,0,0,0,0-.046A28.94,28.94,0,0,0,26.3.138.2.2,0,0,0,26.119,0a.207.207,0,0,0-.2.1,34.179,34.179,0,0,1-2.873,4.2c-1.108,1.335-2.4,2.7-3.653,4.012-.361.38-.735.772-1.1,1.157a1.387,1.387,0,0,1-.166.147,28.371,28.371,0,0,0-3.282-.179,28.391,28.391,0,0,0-3.281.179,1.3,1.3,0,0,1-.165-.147c-.364-.385-.737-.778-1.1-1.157C9.144,7.1,7.943,5.84,6.9,4.6A34.068,34.068,0,0,1,3.785.106a.21.21,0,0,0-.379.032A29.252,29.252,0,0,0,2.285,4.7c-.077.441-.145.9-.2,1.368a42.281,42.281,0,0,0-.181,5.5c0,.264.008.515.01.759A4.945,4.945,0,0,0,.8,12.688a2.391,2.391,0,0,0-.747.5A.2.2,0,0,0,0,13.3a.2.2,0,0,0,.158.219.057.057,0,0,0,.015,0h0c.116.021.233.044.352.07l.078.018.051.011c.092.022.165.039.233.057l.085.023.065.018.039.01.173.049.16.048.017.006c.063.018.124.037.187.057l.115.037.045.016c.067.021.131.043.2.066l.133.047.066.025c.049.017.1.035.151.054l.157.06c.061.023.122.046.183.07l.151.06.018.008c.052.023.106.043.157.065L3,14.4l.133.057c.056.023.109.047.163.071s.095.04.141.062.1.045.152.069l.029.014.1.046.14.067.072.035.054.025.081.04.042.021.116.058.1.051c.016.01.034.016.05.027l.061.029.023.013.064.033.1.051.034.019a.2.2,0,0,1,.028.014c.019.01.037.021.056.03l.041.023s0,0,0,0h0l.115.063c.055.03.11.06.163.092a.218.218,0,0,0,.113.029.2.2,0,0,0,.206-.2.2.2,0,0,0-.019-.084c-.124-.346-.258-.715-.4-1.093L4.951,14l.078.045a14.921,14.921,0,0,1,4.712,4.332l0,.008.064.086a27.342,27.342,0,0,1,3.41,7.714.152.152,0,0,0,.021.049,1.229,1.229,0,0,0,.2.251l.008.008c.023.022.049.044.077.068l.024.018c.024.02.051.038.073.055h0a.17.17,0,0,0,.035.023.9.9,0,0,0,.078.049l.029.017.012,0c.026.015.055.03.086.045l.008,0c.052.024.109.048.179.073.026.008.053.018.084.028a.347.347,0,0,0,.045.012l.023.007.078.021c.024,0,.047.01.069.013l.07.013.022,0,.068.01c.036,0,.07.01.109.011l.017,0,.035,0c.055,0,.11.006.168.006h0c.053,0,.111,0,.167-.006l.053,0c.037,0,.073-.007.107-.01l.049-.008.017,0c.032,0,.065-.011.1-.018l.016,0,.047-.01.063-.015.021-.007h0l.018,0,.048-.013.071-.025.009,0c.071-.026.127-.049.179-.072l.009-.006c.027-.012.054-.027.081-.041l.043-.024c.027-.015.053-.032.081-.049l.006,0,.008,0,.017-.01c.03-.022.058-.041.08-.059l.023-.018c.023-.019.051-.042.079-.068l.01-.01a1.254,1.254,0,0,0,.2-.249.181.181,0,0,0,.024-.049,27.217,27.217,0,0,1,3.408-7.714l.021-.027.044-.06.006-.007a14.883,14.883,0,0,1,4.71-4.332c.025-.015.053-.03.077-.045l-.023.066c-.153.41-.284.773-.4,1.11a.2.2,0,0,0,.095.242.211.211,0,0,0,.094.026.213.213,0,0,0,.115-.029l.168-.093c.036-.02.073-.04.111-.062h0l0,0,.1-.055.056-.03.117-.061.072-.039.109-.054L25.386,15l.082-.041.079-.04.038-.017.066-.033.057-.027.057-.028.07-.032.138-.067.12-.054.022-.01.145-.066.112-.05.028-.01.12-.053.189-.08.176-.073.15-.06c.061-.025.121-.048.184-.071l.023-.009c.044-.018.089-.033.135-.051l.132-.049.059-.02.157-.056.155-.051.066-.022c.044-.015.089-.031.136-.046l.207-.064.047-.014.109-.032.216-.059.04-.01c.035-.011.071-.021.108-.03.071-.019.145-.036.216-.052l.074-.018.07-.016c.13-.028.249-.052.359-.071a.2.2,0,0,0,.117-.333"/><path class="a" d="M7.117,4.387a.058.058,0,0,1-.007-.01l-.045-.06A15.47,15.47,0,0,0,3.323.429.211.211,0,0,0,3.086.423.2.2,0,0,0,3,.637c.1.418.172.74.239,1.041l.018.081-.09-.06A22.77,22.77,0,0,0,.3.021.212.212,0,0,0,.056.065.2.2,0,0,0,.03.306,1.55,1.55,0,0,0,.4.72c1.084.875,2.143,1.79,3.147,2.721a52.758,52.758,0,0,1,5.68,6.115.213.213,0,0,0,.165.08H9.4a.2.2,0,0,0,.2-.2.2.2,0,0,0-.02-.087,26.715,26.715,0,0,0-2.462-4.96" transform="translate(2.352 16.017)"/><path class="a" d="M9.549.064A.216.216,0,0,0,9.3.021,22.905,22.905,0,0,0,6.437,1.7c-.028.02-.059.041-.089.06.006-.026.012-.052.019-.081.07-.315.145-.645.24-1.041A.2.2,0,0,0,6.517.422a.213.213,0,0,0-.238.006A15.444,15.444,0,0,0,2.542,4.307c-.018.023-.033.047-.051.069l-.009.012a.025.025,0,0,0,0,.009A26.6,26.6,0,0,0,.013,9.365a.2.2,0,0,0,.093.247.214.214,0,0,0,.1.026.209.209,0,0,0,.164-.08A52.221,52.221,0,0,1,6.058,3.44C7.05,2.52,8.11,1.6,9.2.72a1.588,1.588,0,0,0,.37-.415A.2.2,0,0,0,9.549.064" transform="translate(17.747 16.055)"/></svg>